<mxfile host="app.diagrams.net" modified="2024-03-01T21:12:28.204Z" agent="Mozilla/5.0 (Windows NT 10.0; Win64; x64) AppleWebKit/537.36 (KHTML, like Gecko) Chrome/120.0.0.0 Safari/537.36" etag="NpME33UpBXRhhqWfkTmg" version="24.0.0" type="device">
  <diagram name="Page-1" id="02_rawnrtoeCJgAJrt47">
    <mxGraphModel dx="677" dy="431" grid="1" gridSize="10" guides="1" tooltips="1" connect="1" arrows="1" fold="1" page="1" pageScale="1" pageWidth="850" pageHeight="1100" math="0" shadow="0">
      <root>
        <mxCell id="0" />
        <mxCell id="1" parent="0" />
        <mxCell id="5JqsVhd7ertVwOTP4O-X-5" style="edgeStyle=orthogonalEdgeStyle;rounded=0;orthogonalLoop=1;jettySize=auto;html=1;" edge="1" parent="1" source="5JqsVhd7ertVwOTP4O-X-1" target="5JqsVhd7ertVwOTP4O-X-4">
          <mxGeometry relative="1" as="geometry">
            <Array as="points">
              <mxPoint x="380" y="170" />
              <mxPoint x="380" y="170" />
            </Array>
          </mxGeometry>
        </mxCell>
        <mxCell id="5JqsVhd7ertVwOTP4O-X-7" value="Serve&lt;div&gt;website&lt;/div&gt;" style="edgeLabel;html=1;align=center;verticalAlign=middle;resizable=0;points=[];" vertex="1" connectable="0" parent="5JqsVhd7ertVwOTP4O-X-5">
          <mxGeometry x="0.1014" y="3" relative="1" as="geometry">
            <mxPoint as="offset" />
          </mxGeometry>
        </mxCell>
        <mxCell id="5JqsVhd7ertVwOTP4O-X-18" style="edgeStyle=orthogonalEdgeStyle;rounded=0;orthogonalLoop=1;jettySize=auto;html=1;entryX=1;entryY=0.5;entryDx=0;entryDy=0;" edge="1" parent="1" source="5JqsVhd7ertVwOTP4O-X-1" target="5JqsVhd7ertVwOTP4O-X-17">
          <mxGeometry relative="1" as="geometry" />
        </mxCell>
        <mxCell id="5JqsVhd7ertVwOTP4O-X-1" value="ESP2866" style="rounded=0;whiteSpace=wrap;html=1;fillColor=#d5e8d4;strokeColor=#82b366;" vertex="1" parent="1">
          <mxGeometry x="360" y="300" width="120" height="60" as="geometry" />
        </mxCell>
        <mxCell id="5JqsVhd7ertVwOTP4O-X-30" style="edgeStyle=orthogonalEdgeStyle;rounded=0;orthogonalLoop=1;jettySize=auto;html=1;" edge="1" parent="1" source="5JqsVhd7ertVwOTP4O-X-2" target="5JqsVhd7ertVwOTP4O-X-20">
          <mxGeometry relative="1" as="geometry">
            <Array as="points">
              <mxPoint x="300" y="190" />
              <mxPoint x="300" y="190" />
            </Array>
          </mxGeometry>
        </mxCell>
        <mxCell id="5JqsVhd7ertVwOTP4O-X-31" value="new command&lt;div&gt;ping&lt;/div&gt;" style="edgeLabel;html=1;align=center;verticalAlign=middle;resizable=0;points=[];" vertex="1" connectable="0" parent="5JqsVhd7ertVwOTP4O-X-30">
          <mxGeometry x="-0.1653" y="-1" relative="1" as="geometry">
            <mxPoint as="offset" />
          </mxGeometry>
        </mxCell>
        <mxCell id="5JqsVhd7ertVwOTP4O-X-35" style="edgeStyle=orthogonalEdgeStyle;rounded=0;orthogonalLoop=1;jettySize=auto;html=1;" edge="1" parent="1" source="5JqsVhd7ertVwOTP4O-X-2" target="5JqsVhd7ertVwOTP4O-X-33">
          <mxGeometry relative="1" as="geometry" />
        </mxCell>
        <mxCell id="5JqsVhd7ertVwOTP4O-X-2" value="Arduino Mega" style="rounded=0;whiteSpace=wrap;html=1;fillColor=#d5e8d4;strokeColor=#82b366;" vertex="1" parent="1">
          <mxGeometry x="200" y="110" width="120" height="60" as="geometry" />
        </mxCell>
        <mxCell id="5JqsVhd7ertVwOTP4O-X-11" style="edgeStyle=orthogonalEdgeStyle;rounded=0;orthogonalLoop=1;jettySize=auto;html=1;" edge="1" parent="1" source="5JqsVhd7ertVwOTP4O-X-3" target="5JqsVhd7ertVwOTP4O-X-4">
          <mxGeometry relative="1" as="geometry">
            <Array as="points">
              <mxPoint x="210" y="90" />
              <mxPoint x="210" y="90" />
            </Array>
          </mxGeometry>
        </mxCell>
        <mxCell id="5JqsVhd7ertVwOTP4O-X-12" value="Send UI commands" style="edgeLabel;html=1;align=center;verticalAlign=middle;resizable=0;points=[];" vertex="1" connectable="0" parent="5JqsVhd7ertVwOTP4O-X-11">
          <mxGeometry x="0.1729" y="1" relative="1" as="geometry">
            <mxPoint x="-17" y="1" as="offset" />
          </mxGeometry>
        </mxCell>
        <mxCell id="5JqsVhd7ertVwOTP4O-X-3" value="Computer" style="rounded=0;whiteSpace=wrap;html=1;fillColor=#d5e8d4;strokeColor=#82b366;" vertex="1" parent="1">
          <mxGeometry x="40" y="50" width="120" height="60" as="geometry" />
        </mxCell>
        <mxCell id="5JqsVhd7ertVwOTP4O-X-6" style="edgeStyle=orthogonalEdgeStyle;rounded=0;orthogonalLoop=1;jettySize=auto;html=1;" edge="1" parent="1">
          <mxGeometry relative="1" as="geometry">
            <mxPoint x="460" y="120" as="sourcePoint" />
            <mxPoint x="460" y="300" as="targetPoint" />
          </mxGeometry>
        </mxCell>
        <mxCell id="5JqsVhd7ertVwOTP4O-X-8" value="Receive&lt;div&gt;manual&lt;/div&gt;&lt;div&gt;commands&lt;/div&gt;" style="edgeLabel;html=1;align=center;verticalAlign=middle;resizable=0;points=[];" vertex="1" connectable="0" parent="5JqsVhd7ertVwOTP4O-X-6">
          <mxGeometry x="-0.3375" y="2" relative="1" as="geometry">
            <mxPoint y="21" as="offset" />
          </mxGeometry>
        </mxCell>
        <mxCell id="5JqsVhd7ertVwOTP4O-X-9" style="edgeStyle=orthogonalEdgeStyle;rounded=0;orthogonalLoop=1;jettySize=auto;html=1;" edge="1" parent="1" source="5JqsVhd7ertVwOTP4O-X-4" target="5JqsVhd7ertVwOTP4O-X-3">
          <mxGeometry relative="1" as="geometry">
            <Array as="points">
              <mxPoint x="250" y="70" />
              <mxPoint x="250" y="70" />
            </Array>
          </mxGeometry>
        </mxCell>
        <mxCell id="5JqsVhd7ertVwOTP4O-X-10" value="Display website" style="edgeLabel;html=1;align=center;verticalAlign=middle;resizable=0;points=[];" vertex="1" connectable="0" parent="5JqsVhd7ertVwOTP4O-X-9">
          <mxGeometry x="0.15" y="-3" relative="1" as="geometry">
            <mxPoint x="9" y="3" as="offset" />
          </mxGeometry>
        </mxCell>
        <mxCell id="5JqsVhd7ertVwOTP4O-X-4" value="Website" style="rounded=1;whiteSpace=wrap;html=1;" vertex="1" parent="1">
          <mxGeometry x="360" y="60" width="120" height="60" as="geometry" />
        </mxCell>
        <mxCell id="5JqsVhd7ertVwOTP4O-X-21" style="edgeStyle=orthogonalEdgeStyle;rounded=0;orthogonalLoop=1;jettySize=auto;html=1;" edge="1" parent="1" source="5JqsVhd7ertVwOTP4O-X-17" target="5JqsVhd7ertVwOTP4O-X-20">
          <mxGeometry relative="1" as="geometry" />
        </mxCell>
        <mxCell id="5JqsVhd7ertVwOTP4O-X-17" value="Command Creator" style="rounded=1;whiteSpace=wrap;html=1;" vertex="1" parent="1">
          <mxGeometry x="200" y="300" width="120" height="60" as="geometry" />
        </mxCell>
        <mxCell id="5JqsVhd7ertVwOTP4O-X-29" style="edgeStyle=orthogonalEdgeStyle;rounded=0;orthogonalLoop=1;jettySize=auto;html=1;" edge="1" parent="1" source="5JqsVhd7ertVwOTP4O-X-20" target="5JqsVhd7ertVwOTP4O-X-2">
          <mxGeometry relative="1" as="geometry">
            <Array as="points">
              <mxPoint x="230" y="200" />
              <mxPoint x="230" y="200" />
            </Array>
          </mxGeometry>
        </mxCell>
        <mxCell id="5JqsVhd7ertVwOTP4O-X-32" value="command send" style="edgeLabel;html=1;align=center;verticalAlign=middle;resizable=0;points=[];" vertex="1" connectable="0" parent="5JqsVhd7ertVwOTP4O-X-29">
          <mxGeometry x="-0.1547" y="1" relative="1" as="geometry">
            <mxPoint as="offset" />
          </mxGeometry>
        </mxCell>
        <mxCell id="5JqsVhd7ertVwOTP4O-X-20" value="Serial Interface" style="rounded=1;whiteSpace=wrap;html=1;" vertex="1" parent="1">
          <mxGeometry x="200" y="220" width="120" height="60" as="geometry" />
        </mxCell>
        <mxCell id="5JqsVhd7ertVwOTP4O-X-25" value="GAMTRY" style="rounded=0;whiteSpace=wrap;html=1;fillColor=#d5e8d4;strokeColor=#82b366;" vertex="1" parent="1">
          <mxGeometry x="40" y="300" width="120" height="60" as="geometry" />
        </mxCell>
        <mxCell id="5JqsVhd7ertVwOTP4O-X-37" style="edgeStyle=orthogonalEdgeStyle;rounded=0;orthogonalLoop=1;jettySize=auto;html=1;" edge="1" parent="1" source="5JqsVhd7ertVwOTP4O-X-33" target="5JqsVhd7ertVwOTP4O-X-36">
          <mxGeometry relative="1" as="geometry" />
        </mxCell>
        <mxCell id="5JqsVhd7ertVwOTP4O-X-33" value="10 Command Queue &amp;amp; Command Deserialization" style="rounded=1;whiteSpace=wrap;html=1;" vertex="1" parent="1">
          <mxGeometry x="40" y="120" width="120" height="60" as="geometry" />
        </mxCell>
        <mxCell id="5JqsVhd7ertVwOTP4O-X-38" style="edgeStyle=orthogonalEdgeStyle;rounded=0;orthogonalLoop=1;jettySize=auto;html=1;" edge="1" parent="1" source="5JqsVhd7ertVwOTP4O-X-36" target="5JqsVhd7ertVwOTP4O-X-25">
          <mxGeometry relative="1" as="geometry" />
        </mxCell>
        <mxCell id="5JqsVhd7ertVwOTP4O-X-36" value="Command Execution Interface" style="rounded=1;whiteSpace=wrap;html=1;" vertex="1" parent="1">
          <mxGeometry x="40" y="200" width="120" height="60" as="geometry" />
        </mxCell>
      </root>
    </mxGraphModel>
  </diagram>
</mxfile>
